<svg width="19" height="19" viewBox="0 0 19 19" fill="none" xmlns="http://www.w3.org/2000/svg">
<path fill-rule="evenodd" clip-rule="evenodd" d="M5.93754 15.0416C6.59338 15.0416 7.12504 15.5733 7.12504 16.2291C7.12504 16.885 6.59338 17.4166 5.93754 17.4166C5.2817 17.4166 4.75004 16.885 4.75004 16.2291C4.75004 15.5733 5.2817 15.0416 5.93754 15.0416ZM13.8542 15.0416C14.51 15.0416 15.0417 15.5733 15.0417 16.2291C15.0417 16.885 14.51 17.4166 13.8542 17.4166C13.1984 17.4166 12.6667 16.885 12.6667 16.2291C12.6667 15.5733 13.1984 15.0416 13.8542 15.0416ZM3.56254 1.58331C3.73751 1.58331 3.90651 1.64123 4.0439 1.74646L4.12233 1.81519L6.26608 3.95831H16.2209C16.6581 3.95831 17.0126 4.31275 17.0126 4.74998C17.0126 4.85622 16.9912 4.96137 16.9497 5.05916L14.8034 10.1184C14.5552 10.7034 13.9813 11.0833 13.3458 11.0833H6.33337V11.875L6.3387 11.9673C6.38091 12.3307 6.66928 12.6191 7.03272 12.6613L7.12504 12.6666H14.25L14.3424 12.672C14.7361 12.7177 15.0417 13.0523 15.0417 13.4583C15.0417 13.8643 14.7361 14.1989 14.3424 14.2447L14.25 14.25H7.12504L6.98549 14.2459C5.78494 14.1764 4.82363 13.2151 4.75407 12.0145L4.75004 11.875V10.2916L4.75537 10.1993C4.76489 10.1174 4.78692 10.0392 4.81951 9.96688C4.77462 9.81988 4.75004 9.6628 4.75004 9.49998V4.68269L3.234 3.16665H2.37504C1.93782 3.16665 1.58337 2.81221 1.58337 2.37498V2.37498C1.58337 1.93775 1.93782 1.58331 2.37504 1.58331H3.56254ZM15.0243 5.54165H6.33337V9.49998H13.3458L15.0243 5.54165Z" fill="#7E84A3"/>
</svg>
