<svg width="182" height="124" viewBox="0 0 182 124" fill="none" xmlns="http://www.w3.org/2000/svg">
<g filter="url(#filter0_i_489_1808)">
<path d="M21.28 122V41.04C21.28 35.0667 22.5067 29.6267 24.96 24.72C27.52 19.7067 31.4667 15.76 36.8 12.88C42.1333 9.89333 49.0667 8.39999 57.6 8.39999C62.1867 8.39999 66.56 8.82666 70.72 9.68C74.88 10.5333 78.6133 11.4933 81.92 12.56L76.96 31.28C74.6133 30.32 72.0533 29.5733 69.28 29.04C66.5067 28.5067 63.68 28.24 60.8 28.24C56.1067 28.24 52.5867 29.2533 50.24 31.28C47.8933 33.2 46.72 36.4533 46.72 41.04V122H21.28ZM0.48 62.32V43.28L22.08 42.32H72.96V62.32H0.48Z" fill="#56ECF6"/>
<path d="M89.3775 123.92C79.2442 123.92 71.0842 120.187 64.8975 112.72C58.8175 105.253 55.7775 95.0667 55.7775 82.16C55.7775 73.4133 57.4308 65.9467 60.7375 59.76C64.0442 53.5733 68.2575 48.8267 73.3775 45.52C78.4975 42.1067 83.8842 40.4 89.5375 40.4C93.9108 40.4 97.5908 41.1467 100.577 42.64C103.671 44.0267 106.444 46.0533 108.898 48.72H109.538L108.258 36.72V10.32H133.858V122H113.058L111.298 114.32H110.658C107.778 116.987 104.418 119.28 100.577 121.2C96.8442 123.013 93.1108 123.92 89.3775 123.92ZM95.9375 103.12C98.3908 103.12 100.631 102.64 102.658 101.68C104.684 100.72 106.551 99.0133 108.258 96.56V65.84C106.444 64.0267 104.524 62.8 102.498 62.16C100.578 61.52 98.5508 61.2 96.4175 61.2C93.8575 61.2 91.4575 61.8933 89.2175 63.28C86.9775 64.6667 85.2175 66.9067 83.9375 70C82.6575 73.0933 82.0175 77.04 82.0175 81.84C82.0175 89.3067 83.2442 94.7467 85.6975 98.16C88.1508 101.467 91.5642 103.12 95.9375 103.12Z" fill="#5661F6"/>
<path d="M152.835 122V62.32H121.635V42.32H178.435V122H152.835ZM164.675 30.64C159.875 30.64 155.875 29.2533 152.675 26.48C149.582 23.7067 148.035 20.0267 148.035 15.44C148.035 10.8533 149.582 7.17333 152.675 4.4C155.875 1.52 159.875 0.0799961 164.675 0.0799961C169.475 0.0799961 173.422 1.52 176.515 4.4C179.715 7.17333 181.315 10.8533 181.315 15.44C181.315 20.0267 179.715 23.7067 176.515 26.48C173.422 29.2533 169.475 30.64 164.675 30.64Z" fill="black"/>
</g>
<defs>
<filter id="filter0_i_489_1808" x="0.480011" y="0.0800171" width="180.835" height="127.84" filterUnits="userSpaceOnUse" color-interpolation-filters="sRGB">
<feFlood flood-opacity="0" result="BackgroundImageFix"/>
<feBlend mode="normal" in="SourceGraphic" in2="BackgroundImageFix" result="shape"/>
<feColorMatrix in="SourceAlpha" type="matrix" values="0 0 0 0 0 0 0 0 0 0 0 0 0 0 0 0 0 0 127 0" result="hardAlpha"/>
<feOffset dy="4"/>
<feGaussianBlur stdDeviation="2"/>
<feComposite in2="hardAlpha" operator="arithmetic" k2="-1" k3="1"/>
<feColorMatrix type="matrix" values="0 0 0 0 0 0 0 0 0 0 0 0 0 0 0 0 0 0 0.25 0"/>
<feBlend mode="normal" in2="shape" result="effect1_innerShadow_489_1808"/>
</filter>
</defs>
</svg>
