<svg width="95" height="40" viewBox="0 0 95 40" fill="none" xmlns="http://www.w3.org/2000/svg">
<rect x="0.5" y="0.5" width="94" height="39" rx="3.5" fill="white" stroke="#D7DBEC"/>
<path d="M19.4722 13.712H20.7202V15.984H23.8082V13.712H25.0722V20.448H19.4722V13.712ZM20.7202 17.04V19.376H23.8082V17.04H20.7202ZM29.7442 12.8H31.0082V21.472H29.7442V12.8ZM27.4082 16.544H30.1442V17.648H27.4082V16.544ZM26.6402 13.056H27.9042V21.392H26.6402V13.056ZM21.3122 22.336H31.0082V27.248H29.6962V23.424H21.3122V22.336ZM39.551 18.256H42.271V19.36H39.551V18.256ZM34.079 22.688H35.007C37.231 22.688 38.559 22.64 40.159 22.32L40.287 23.408C38.639 23.728 37.263 23.776 35.007 23.776H34.079V22.688ZM34.079 14.528H39.439V15.6H35.343V23.056H34.079V14.528ZM34.959 18.432H38.783V19.488H34.959V18.432ZM44.543 12.784H45.823V27.248H44.543V12.784ZM41.631 13.12H42.895V26.512H41.631V13.12ZM54.0617 13.776H55.2137V14.88C55.2137 18.032 52.2857 20.48 49.3897 21.136L48.7977 20.032C51.3417 19.552 54.0617 17.344 54.0617 14.88V13.776ZM54.3017 13.776H55.4537V14.88C55.4537 17.36 58.1897 19.552 60.7177 20.032L60.1257 21.136C57.2457 20.48 54.3017 18.048 54.3017 14.88V13.776ZM48.2697 24.208H61.3737V25.296H48.2697V24.208ZM64.6685 20.576H74.6045V21.648H64.6685V20.576ZM62.9885 24.288H76.0925V25.392H62.9885V24.288ZM64.6685 14.016H74.4445V15.104H66.0125V20.912H64.6685V14.016ZM65.5805 17.248H74.1405V18.304H65.5805V17.248Z" fill="#1E5EFF"/>
</svg>
