<svg width="24" height="24" viewBox="0 0 24 24" fill="none" xmlns="http://www.w3.org/2000/svg">
<path fill-rule="evenodd" clip-rule="evenodd" d="M7.5 19C8.32843 19 9 19.6716 9 20.5C9 21.3284 8.32843 22 7.5 22C6.67157 22 6 21.3284 6 20.5C6 19.6716 6.67157 19 7.5 19ZM17.5 19C18.3284 19 19 19.6716 19 20.5C19 21.3284 18.3284 22 17.5 22C16.6716 22 16 21.3284 16 20.5C16 19.6716 16.6716 19 17.5 19ZM4.5 2C4.72101 2 4.93448 2.07316 5.10803 2.20608L5.20711 2.29289L7.915 5H20.4895C21.0418 5 21.4895 5.44772 21.4895 6C21.4895 6.13419 21.4625 6.26701 21.4101 6.39055L18.6989 12.7811C18.3854 13.5201 17.6605 14 16.8578 14H8V15L8.00673 15.1166C8.06005 15.5757 8.4243 15.94 8.88338 15.9933L9 16H18L18.1166 16.0067C18.614 16.0645 19 16.4872 19 17C19 17.5128 18.614 17.9355 18.1166 17.9933L18 18H9L8.82373 17.9949C7.30725 17.907 6.09296 16.6928 6.00509 15.1763L6 15V13L6.00673 12.8834C6.01875 12.7799 6.04658 12.6812 6.08775 12.5898C6.03104 12.4041 6 12.2057 6 12V5.915L4.085 4H3C2.44772 4 2 3.55228 2 3V3C2 2.44772 2.44772 2 3 2H4.5ZM18.978 7H8V12H16.8578L18.978 7Z" fill="#7E84A3"/>
</svg>
