<svg width="23" height="22" viewBox="0 0 23 22" fill="none" xmlns="http://www.w3.org/2000/svg">
<path fill-rule="evenodd" clip-rule="evenodd" d="M6.4375 18.707C7.36948 18.707 8.125 19.4389 8.125 20.3418C8.125 21.2447 7.36948 21.9766 6.4375 21.9766C5.50552 21.9766 4.75 21.2447 4.75 20.3418C4.75 19.4389 5.50552 18.707 6.4375 18.707ZM17.6875 18.707C18.6195 18.707 19.375 19.4389 19.375 20.3418C19.375 21.2447 18.6195 21.9766 17.6875 21.9766C16.7555 21.9766 16 21.2447 16 20.3418C16 19.4389 16.7555 18.707 17.6875 18.707ZM3.0625 0.179688C3.31114 0.179688 3.55129 0.259425 3.74653 0.404283L3.858 0.498895L6.90437 3.44922H21.0507C21.672 3.44922 22.1757 3.93716 22.1757 4.53906C22.1757 4.68531 22.1453 4.83007 22.0863 4.9647L19.0363 11.9294C18.6836 12.7348 17.868 13.2578 16.965 13.2578H7V14.3477L7.00757 14.4748C7.06756 14.9751 7.47733 15.3721 7.9938 15.4302L8.125 15.4375H18.25L18.3812 15.4448C18.9407 15.5078 19.375 15.9684 19.375 16.5273C19.375 17.0863 18.9407 17.5469 18.3812 17.6099L18.25 17.6172H8.125L7.92669 17.6116C6.22065 17.5159 4.85458 16.1925 4.75573 14.5398L4.75 14.3477V12.168L4.75757 12.0409C4.7711 11.9281 4.80241 11.8205 4.84872 11.7209C4.78492 11.5185 4.75 11.3023 4.75 11.0781V4.44643L2.59563 2.35938H1.33984C0.737939 2.35938 0.25 1.87144 0.25 1.26953V1.26953C0.25 0.667627 0.73794 0.179688 1.33984 0.179688H3.0625Z" fill="#2678F3"/>
</svg>
