<svg width="157" height="50" viewBox="0 0 157 50" fill="none" xmlns="http://www.w3.org/2000/svg">
<path d="M62.0114 23V11.3636H69.7159V13.392H64.4716V16.1648H69.2045V18.1932H64.4716V23H62.0114ZM82.0639 17.1818C82.0639 18.4508 81.8234 19.5303 81.3423 20.4205C80.8651 21.3106 80.2135 21.9905 79.3878 22.4602C78.5658 22.9261 77.6416 23.1591 76.6151 23.1591C75.581 23.1591 74.6529 22.9242 73.831 22.4545C73.009 21.9848 72.3594 21.3049 71.8821 20.4148C71.4048 19.5246 71.1662 18.447 71.1662 17.1818C71.1662 15.9129 71.4048 14.8333 71.8821 13.9432C72.3594 13.053 73.009 12.375 73.831 11.9091C74.6529 11.4394 75.581 11.2045 76.6151 11.2045C77.6416 11.2045 78.5658 11.4394 79.3878 11.9091C80.2135 12.375 80.8651 13.053 81.3423 13.9432C81.8234 14.8333 82.0639 15.9129 82.0639 17.1818ZM79.5696 17.1818C79.5696 16.3598 79.4465 15.6667 79.2003 15.1023C78.9579 14.5379 78.6151 14.1098 78.1719 13.8182C77.7287 13.5265 77.2098 13.3807 76.6151 13.3807C76.0204 13.3807 75.5014 13.5265 75.0582 13.8182C74.6151 14.1098 74.2704 14.5379 74.0241 15.1023C73.7817 15.6667 73.6605 16.3598 73.6605 17.1818C73.6605 18.0038 73.7817 18.697 74.0241 19.2614C74.2704 19.8258 74.6151 20.2538 75.0582 20.5455C75.5014 20.8371 76.0204 20.983 76.6151 20.983C77.2098 20.983 77.7287 20.8371 78.1719 20.5455C78.6151 20.2538 78.9579 19.8258 79.2003 19.2614C79.4465 18.697 79.5696 18.0038 79.5696 17.1818ZM83.8864 23V11.3636H88.4773C89.3561 11.3636 90.1061 11.5208 90.7273 11.8352C91.3523 12.1458 91.8277 12.5871 92.1534 13.1591C92.483 13.7273 92.6477 14.3958 92.6477 15.1648C92.6477 15.9375 92.4811 16.6023 92.1477 17.1591C91.8144 17.7121 91.3314 18.1364 90.6989 18.4318C90.0701 18.7273 89.3087 18.875 88.4148 18.875H85.3409V16.8977H88.017C88.4867 16.8977 88.8769 16.8333 89.1875 16.7045C89.4981 16.5758 89.7292 16.3826 89.8807 16.125C90.036 15.8674 90.1136 15.5473 90.1136 15.1648C90.1136 14.7784 90.036 14.4527 89.8807 14.1875C89.7292 13.9223 89.4962 13.7216 89.1818 13.5852C88.8712 13.4451 88.4792 13.375 88.0057 13.375H86.3466V23H83.8864ZM90.1705 17.7045L93.0625 23H90.3466L87.517 17.7045H90.1705ZM102.214 23H98.0895V11.3636H102.249C103.419 11.3636 104.427 11.5966 105.271 12.0625C106.116 12.5246 106.766 13.1894 107.22 14.0568C107.679 14.9242 107.908 15.9621 107.908 17.1705C107.908 18.3826 107.679 19.4242 107.22 20.2955C106.766 21.1667 106.112 21.8352 105.26 22.3011C104.411 22.767 103.396 23 102.214 23ZM100.55 20.892H102.112C102.839 20.892 103.451 20.7633 103.947 20.5057C104.447 20.2443 104.822 19.8409 105.072 19.2955C105.326 18.7462 105.453 18.0379 105.453 17.1705C105.453 16.3106 105.326 15.608 105.072 15.0625C104.822 14.517 104.449 14.1155 103.953 13.858C103.457 13.6004 102.845 13.4716 102.118 13.4716H100.55V20.892ZM112.19 11.3636V23H109.73V11.3636H112.19ZM114.214 23V11.3636H118.805C119.684 11.3636 120.434 11.5208 121.055 11.8352C121.68 12.1458 122.156 12.5871 122.482 13.1591C122.811 13.7273 122.976 14.3958 122.976 15.1648C122.976 15.9375 122.809 16.6023 122.476 17.1591C122.143 17.7121 121.66 18.1364 121.027 18.4318C120.398 18.7273 119.637 18.875 118.743 18.875H115.669V16.8977H118.345C118.815 16.8977 119.205 16.8333 119.516 16.7045C119.826 16.5758 120.057 16.3826 120.209 16.125C120.364 15.8674 120.442 15.5473 120.442 15.1648C120.442 14.7784 120.364 14.4527 120.209 14.1875C120.057 13.9223 119.824 13.7216 119.51 13.5852C119.199 13.4451 118.807 13.375 118.334 13.375H116.675V23H114.214ZM120.499 17.7045L123.391 23H120.675L117.845 17.7045H120.499ZM124.714 23V11.3636H132.555V13.392H127.175V16.1648H132.152V18.1932H127.175V20.9716H132.578V23H124.714ZM144.778 15.4375H142.29C142.244 15.1155 142.152 14.8295 142.011 14.5795C141.871 14.3258 141.691 14.1098 141.472 13.9318C141.252 13.7538 140.998 13.6174 140.71 13.5227C140.426 13.428 140.117 13.3807 139.784 13.3807C139.182 13.3807 138.657 13.5303 138.21 13.8295C137.763 14.125 137.417 14.5568 137.17 15.125C136.924 15.6894 136.801 16.375 136.801 17.1818C136.801 18.0114 136.924 18.7083 137.17 19.2727C137.42 19.8371 137.769 20.2633 138.216 20.5511C138.663 20.839 139.18 20.983 139.767 20.983C140.097 20.983 140.402 20.9394 140.682 20.8523C140.966 20.7652 141.218 20.6383 141.438 20.4716C141.657 20.3011 141.839 20.0947 141.983 19.8523C142.131 19.6098 142.233 19.3333 142.29 19.0227L144.778 19.0341C144.714 19.5682 144.553 20.0833 144.295 20.5795C144.042 21.072 143.699 21.5133 143.267 21.9034C142.839 22.2898 142.328 22.5966 141.733 22.8239C141.142 23.0473 140.473 23.1591 139.727 23.1591C138.689 23.1591 137.761 22.9242 136.943 22.4545C136.129 21.9848 135.485 21.3049 135.011 20.4148C134.542 19.5246 134.307 18.447 134.307 17.1818C134.307 15.9129 134.545 14.8333 135.023 13.9432C135.5 13.053 136.148 12.375 136.966 11.9091C137.784 11.4394 138.705 11.2045 139.727 11.2045C140.402 11.2045 141.027 11.2992 141.602 11.4886C142.182 11.678 142.695 11.9545 143.142 12.3182C143.589 12.678 143.953 13.1193 144.233 13.642C144.517 14.1648 144.699 14.7633 144.778 15.4375ZM146.099 13.392V11.3636H155.656V13.392H152.094V23H149.662V13.392H146.099ZM64.4716 27.3636V39H62.0114V27.3636H64.4716ZM76.2287 27.3636V39H74.1037L69.0412 31.6761H68.956V39H66.4957V27.3636H68.6548L73.6776 34.6818H73.7798V27.3636H76.2287ZM82.3864 39H78.2614V27.3636H82.4205C83.5909 27.3636 84.5985 27.5966 85.4432 28.0625C86.2879 28.5246 86.9375 29.1894 87.392 30.0568C87.8504 30.9242 88.0795 31.9621 88.0795 33.1705C88.0795 34.3826 87.8504 35.4242 87.392 36.2955C86.9375 37.1667 86.2841 37.8352 85.4318 38.3011C84.5833 38.767 83.5682 39 82.3864 39ZM80.7216 36.892H82.2841C83.0114 36.892 83.6231 36.7633 84.1193 36.5057C84.6193 36.2443 84.9943 35.8409 85.2443 35.2955C85.4981 34.7462 85.625 34.0379 85.625 33.1705C85.625 32.3106 85.4981 31.608 85.2443 31.0625C84.9943 30.517 84.6212 30.1155 84.125 29.858C83.6288 29.6004 83.017 29.4716 82.2898 29.4716H80.7216V36.892ZM89.902 39V27.3636H97.7429V29.392H92.3622V32.1648H97.3395V34.1932H92.3622V36.9716H97.7656V39H89.902ZM102.006 27.3636L104.352 31.3295H104.443L106.801 27.3636H109.58L106.028 33.1818L109.659 39H106.83L104.443 35.0284H104.352L101.966 39H99.1477L102.79 33.1818L99.2159 27.3636H102.006ZM113.597 27.3636V39H111.136V27.3636H113.597ZM125.354 27.3636V39H123.229L118.166 31.6761H118.081V39H115.621V27.3636H117.78L122.803 34.6818H122.905V27.3636H125.354ZM135.102 31.125C135.023 30.8485 134.911 30.6042 134.767 30.392C134.623 30.1761 134.447 29.9943 134.239 29.8466C134.034 29.6951 133.799 29.5795 133.534 29.5C133.273 29.4205 132.983 29.3807 132.665 29.3807C132.07 29.3807 131.547 29.5284 131.097 29.8239C130.65 30.1193 130.301 30.5492 130.051 31.1136C129.801 31.6742 129.676 32.3598 129.676 33.1705C129.676 33.9811 129.799 34.6705 130.045 35.2386C130.292 35.8068 130.64 36.2405 131.091 36.5398C131.542 36.8352 132.074 36.983 132.688 36.983C133.244 36.983 133.72 36.8845 134.114 36.6875C134.511 36.4867 134.814 36.2045 135.023 35.8409C135.235 35.4773 135.341 35.0473 135.341 34.5511L135.841 34.625H132.841V32.7727H137.71V34.2386C137.71 35.2614 137.494 36.1402 137.062 36.875C136.631 37.6061 136.036 38.1705 135.278 38.5682C134.521 38.9621 133.653 39.1591 132.676 39.1591C131.585 39.1591 130.627 38.9186 129.801 38.4375C128.975 37.9527 128.331 37.2652 127.869 36.375C127.411 35.4811 127.182 34.4205 127.182 33.1932C127.182 32.25 127.318 31.4091 127.591 30.6705C127.867 29.928 128.254 29.2992 128.75 28.7841C129.246 28.2689 129.824 27.8769 130.483 27.608C131.142 27.339 131.856 27.2045 132.625 27.2045C133.284 27.2045 133.898 27.3011 134.466 27.4943C135.034 27.6837 135.538 27.9527 135.977 28.3011C136.42 28.6496 136.782 29.0644 137.062 29.5455C137.343 30.0227 137.523 30.5492 137.602 31.125H135.102Z" fill="#131523"/>
<g filter="url(#filter0_i_515_1667)">
<path d="M8.32 39V18.76C8.32 17.2667 8.62667 15.9067 9.24 14.68C9.88 13.4267 10.8667 12.44 12.2 11.72C13.5333 10.9733 15.2667 10.6 17.4 10.6C18.5467 10.6 19.64 10.7067 20.68 10.92C21.72 11.1333 22.6533 11.3733 23.48 11.64L22.24 16.32C21.6533 16.08 21.0133 15.8933 20.32 15.76C19.6267 15.6267 18.92 15.56 18.2 15.56C17.0267 15.56 16.1467 15.8133 15.56 16.32C14.9733 16.8 14.68 17.6133 14.68 18.76V39H8.32ZM3.12 24.08V19.32L8.52 19.08H21.24V24.08H3.12Z" fill="#56ECF6"/>
<path d="M25.3444 39.48C22.811 39.48 20.771 38.5467 19.2244 36.68C17.7044 34.8133 16.9444 32.2667 16.9444 29.04C16.9444 26.8533 17.3577 24.9867 18.1844 23.44C19.011 21.8933 20.0644 20.7067 21.3444 19.88C22.6244 19.0267 23.971 18.6 25.3844 18.6C26.4777 18.6 27.3977 18.7867 28.1444 19.16C28.9177 19.5067 29.611 20.0133 30.2244 20.68H30.3844L30.0644 17.68V11.08H36.4644V39H31.2644L30.8244 37.08H30.6644C29.9444 37.7467 29.1044 38.32 28.1444 38.8C27.211 39.2533 26.2777 39.48 25.3444 39.48ZM26.9844 34.28C27.5977 34.28 28.1577 34.16 28.6644 33.92C29.171 33.68 29.6377 33.2533 30.0644 32.64V24.96C29.611 24.5067 29.131 24.2 28.6244 24.04C28.1444 23.88 27.6377 23.8 27.1044 23.8C26.4644 23.8 25.8644 23.9733 25.3044 24.32C24.7444 24.6667 24.3044 25.2267 23.9844 26C23.6644 26.7733 23.5044 27.76 23.5044 28.96C23.5044 30.8267 23.811 32.1867 24.4244 33.04C25.0377 33.8667 25.891 34.28 26.9844 34.28Z" fill="#5661F6"/>
<path d="M41.2088 39V24.08H33.4087V19.08H47.6088V39H41.2088ZM44.1688 16.16C42.9688 16.16 41.9688 15.8133 41.1688 15.12C40.3954 14.4267 40.0088 13.5067 40.0088 12.36C40.0088 11.2133 40.3954 10.2933 41.1688 9.6C41.9688 8.88 42.9688 8.52 44.1688 8.52C45.3688 8.52 46.3554 8.88 47.1288 9.6C47.9288 10.2933 48.3288 11.2133 48.3288 12.36C48.3288 13.5067 47.9288 14.4267 47.1288 15.12C46.3554 15.8133 45.3688 16.16 44.1688 16.16Z" fill="black"/>
</g>
<defs>
<filter id="filter0_i_515_1667" x="3.12" y="8.51999" width="45.2087" height="34.96" filterUnits="userSpaceOnUse" color-interpolation-filters="sRGB">
<feFlood flood-opacity="0" result="BackgroundImageFix"/>
<feBlend mode="normal" in="SourceGraphic" in2="BackgroundImageFix" result="shape"/>
<feColorMatrix in="SourceAlpha" type="matrix" values="0 0 0 0 0 0 0 0 0 0 0 0 0 0 0 0 0 0 127 0" result="hardAlpha"/>
<feOffset dy="4"/>
<feGaussianBlur stdDeviation="2"/>
<feComposite in2="hardAlpha" operator="arithmetic" k2="-1" k3="1"/>
<feColorMatrix type="matrix" values="0 0 0 0 0 0 0 0 0 0 0 0 0 0 0 0 0 0 0.25 0"/>
<feBlend mode="normal" in2="shape" result="effect1_innerShadow_515_1667"/>
</filter>
</defs>
</svg>
