<svg width="21" height="20" viewBox="0 0 21 20" fill="none" xmlns="http://www.w3.org/2000/svg">
<path fill-rule="evenodd" clip-rule="evenodd" d="M9.3823 2.79999C12.7447 2.79999 15.4705 5.48628 15.4705 8.79999C15.4705 10.1681 15.0059 11.4293 14.2237 12.4386L16.8563 15.0343C17.1733 15.3467 17.1733 15.8533 16.8563 16.1657C16.5637 16.4541 16.1032 16.4762 15.7848 16.2322L15.7083 16.1657L13.0744 13.5712C12.0503 14.3421 10.7705 14.8 9.3823 14.8C6.01986 14.8 3.29407 12.1137 3.29407 8.79999C3.29407 5.48628 6.01986 2.79999 9.3823 2.79999ZM9.3823 4.39999C6.91651 4.39999 4.9176 6.36993 4.9176 8.79999C4.9176 11.23 6.91651 13.2 9.3823 13.2C10.4791 13.2 11.4835 12.8102 12.2608 12.1636C12.2974 12.0429 12.3646 11.9296 12.4612 11.8343C12.5579 11.739 12.6729 11.6728 12.795 11.6356C13.4515 10.8708 13.847 9.8809 13.847 8.79999C13.847 6.36993 11.8481 4.39999 9.3823 4.39999Z" fill="#7E84A3"/>
</svg>
