<svg width="20" height="20" viewBox="0 0 20 20" fill="none" xmlns="http://www.w3.org/2000/svg">
<path fill-rule="evenodd" clip-rule="evenodd" d="M10 0C15.5228 0 20 4.47715 20 10C20 15.5228 15.5228 20 10 20C4.47715 20 0 15.5228 0 10C0 4.47715 4.47715 0 10 0ZM10 2C5.58172 2 2 5.58172 2 10C2 14.4183 5.58172 18 10 18C14.4183 18 18 14.4183 18 10C18 5.58172 14.4183 2 10 2ZM14 8C14 5.79086 12.2091 4 10 4C7.79086 4 6 5.79086 6 8H8L8.00549 7.85074C8.08183 6.81588 8.94564 6 10 6C11.1046 6 12 6.89543 12 8C12 9.10457 11.1046 10 10 10C9.44771 10 9 10.4477 9 11V12C9 12.5523 9.44771 13 10 13C10.5523 13 11 12.5523 11 12V11.874C12.7252 11.4299 14 9.86384 14 8ZM11 16V14H9V16H11Z" fill="white"/>
</svg>
